<?xml version="1.0" encoding="UTF-8" standalone="no"?>
<!DOCTYPE svg PUBLIC "-//W3C//DTD SVG 1.1//EN" "http://www.w3.org/Graphics/SVG/1.1/DTD/svg11.dtd">
<svg width="100%" height="100%" viewBox="0 0 986 976" version="1.1" xmlns="http://www.w3.org/2000/svg" xmlns:xlink="http://www.w3.org/1999/xlink" xml:space="preserve" xmlns:serif="http://www.serif.com/" style="fill-rule:evenodd;clip-rule:evenodd;stroke-linejoin:round;stroke-miterlimit:2;">
    <g transform="matrix(1,0,0,1,-673.875,-492.875)">
        <g id="music-spell" transform="matrix(2.08333,0,0,2.08333,632.871,450.755)">
            <path d="M227.346,21.72C166.6,21.42 106.33,48.002 65.633,99.272C-4.765,187.952 10.057,316.906 98.736,387.304C105.143,392.394 112.218,397.228 119.012,401.434C46.694,328.73 38.35,211.73 103.664,129.462C168.974,47.187 284.811,28.767 372.024,82.706C366.394,77.046 360.072,71.252 353.666,66.166C316.254,36.466 271.673,21.936 227.346,21.718L227.346,21.72ZM268.136,89.732C250.963,89.562 233.672,93.757 217.152,103.32L217.282,103.557L213.372,105.507C245.856,170.569 257.572,246.047 251.328,323.072C234.898,301.415 206.286,283.942 176.83,279.692C136.12,273.822 109.23,295.43 116.77,327.957C124.312,360.484 163.426,391.611 204.135,397.482C237.451,402.287 261.495,388.682 265.005,365.756L265.01,365.756C273.49,312.598 274.02,259.208 265.58,208.281C325.07,207.146 375.753,292.694 337.545,379.343C418.278,300.75 344.305,152.743 256.265,165.835C254.393,159.045 252.345,152.319 250.121,145.659C326.478,123.322 415.371,219.655 384.526,336.515C461.34,235.536 366.66,90.718 268.137,89.732L268.136,89.732ZM387.966,103.996C462.504,174.418 474.474,291.102 411.744,375.359C349.02,459.619 233.807,481.626 144.964,430.421C150.768,435.901 157.264,441.497 163.826,446.381C254.649,513.991 383.084,495.179 450.693,404.353C518.305,313.53 499.491,185.097 408.668,117.485C402.108,112.598 394.885,107.987 387.965,103.995L387.966,103.996Z" style="fill:rgb(229,30,37);fill-rule:nonzero;stroke:black;stroke-width:3px;"/>
        </g>
    </g>
</svg>
